<svg width="35" height="35" viewBox="0 0 35 35" fill="none" xmlns="http://www.w3.org/2000/svg">
    <path d="M27 0H8C3.58172 0 0 3.58172 0 8V27C0 31.4183 3.58172 35 8 35H27C31.4183 35 35 31.4183 35 27V8C35 3.58172 31.4183 0 27 0Z" fill="#E14857"/>
    <path d="M17.291 14.5146H19.2988L19.0645 16.7334H17.291V23.1709H14.627V16.7334H13.2988V14.5146H14.627V13.1787C14.627 12.2308 14.8509 11.5146 15.2988 11.0303C15.7467 10.5407 16.4837 10.2959 17.5098 10.2959H19.2832V12.5146H18.1738C17.9707 12.5146 17.8066 12.5329 17.6816 12.5693C17.5618 12.6006 17.4733 12.6605 17.416 12.749C17.3639 12.8376 17.3301 12.9287 17.3145 13.0225C17.2988 13.111 17.291 13.2386 17.291 13.4053V14.5146Z" fill="white"/>
    </svg>
    