<svg width="35" height="35" viewBox="0 0 35 35" fill="none" xmlns="http://www.w3.org/2000/svg">
    <path d="M27 0H8C3.58172 0 0 3.58172 0 8V27C0 31.4183 3.58172 35 8 35H27C31.4183 35 35 31.4183 35 27V8C35 3.58172 31.4183 0 27 0Z" fill="#E14857"/>
    <path d="M21.9395 20.3115V15.249H20.8848C20.9889 15.5771 21.041 15.9183 21.041 16.2725C21.041 16.9287 20.8743 17.5355 20.541 18.0928C20.2077 18.6449 19.7546 19.0824 19.1816 19.4053C18.6087 19.7282 17.9837 19.8896 17.3066 19.8896C16.2806 19.8896 15.403 19.5381 14.6738 18.835C13.9447 18.1266 13.5801 17.2725 13.5801 16.2725C13.5801 15.9183 13.6322 15.5771 13.7363 15.249H12.6348V20.3115C12.6348 20.4469 12.679 20.5615 12.7676 20.6553C12.8613 20.7438 12.9759 20.7881 13.1113 20.7881H21.4629C21.5931 20.7881 21.7051 20.7438 21.7988 20.6553C21.8926 20.5615 21.9395 20.4469 21.9395 20.3115ZM19.0098 17.8037C19.4837 17.3454 19.7207 16.7933 19.7207 16.1475C19.7207 15.5016 19.4837 14.9521 19.0098 14.499C18.541 14.0407 17.9733 13.8115 17.3066 13.8115C16.6452 13.8115 16.0775 14.0407 15.6035 14.499C15.1348 14.9521 14.9004 15.5016 14.9004 16.1475C14.9004 16.7933 15.1348 17.3454 15.6035 17.8037C16.0775 18.2568 16.6452 18.4834 17.3066 18.4834C17.9733 18.4834 18.541 18.2568 19.0098 17.8037ZM21.9395 13.335V12.0459C21.9395 11.9001 21.8874 11.7751 21.7832 11.6709C21.679 11.5615 21.5514 11.5068 21.4004 11.5068H20.041C19.89 11.5068 19.7624 11.5615 19.6582 11.6709C19.554 11.7751 19.502 11.9001 19.502 12.0459V13.335C19.502 13.486 19.554 13.6136 19.6582 13.7178C19.7624 13.8219 19.89 13.874 20.041 13.874H21.4004C21.5514 13.874 21.679 13.8219 21.7832 13.7178C21.8874 13.6136 21.9395 13.486 21.9395 13.335ZM23.2988 11.71V20.6318C23.2988 21.0537 23.1478 21.4157 22.8457 21.7178C22.5436 22.0199 22.1816 22.1709 21.7598 22.1709H12.8379C12.416 22.1709 12.054 22.0199 11.752 21.7178C11.4499 21.4157 11.2988 21.0537 11.2988 20.6318V11.71C11.2988 11.2881 11.4499 10.9261 11.752 10.624C12.054 10.3219 12.416 10.1709 12.8379 10.1709H21.7598C22.1816 10.1709 22.5436 10.3219 22.8457 10.624C23.1478 10.9261 23.2988 11.2881 23.2988 11.71Z" fill="white"/>
    </svg>
    