<svg width="35" height="35" viewBox="0 0 35 35" fill="none"
    xmlns="http://www.w3.org/2000/svg">
    <path d="M27 0H8C3.58172 0 0 3.58172 0 8V27C0 31.4183 3.58172 35 8 35H27C31.4183 35 35 31.4183 35 27V8C35 3.58172 31.4183 0 27 0Z" fill="#E14857"/>
    <path d="M23.2988 20.9209V14.9209C23.1322 15.1084 22.9525 15.2803 22.7598 15.4365C21.3639 16.5094 20.2546 17.3896 19.4316 18.0771C19.166 18.3011 18.9499 18.4756 18.7832 18.6006C18.6165 18.7256 18.39 18.8532 18.1035 18.9834C17.8223 19.1084 17.5566 19.1709 17.3066 19.1709H17.2988H17.291C17.041 19.1709 16.7728 19.1084 16.4863 18.9834C16.2051 18.8532 15.9811 18.7256 15.8145 18.6006C15.6478 18.4756 15.4316 18.3011 15.166 18.0771C14.3431 17.3896 13.2337 16.5094 11.8379 15.4365C11.6452 15.2803 11.4655 15.1084 11.2988 14.9209V20.9209C11.2988 20.9886 11.3223 21.0485 11.3691 21.1006C11.4212 21.1475 11.4811 21.1709 11.5488 21.1709H23.0488C23.1165 21.1709 23.1738 21.1475 23.2207 21.1006C23.2728 21.0485 23.2988 20.9886 23.2988 20.9209ZM23.2988 12.71C23.2988 12.6995 23.2988 12.6709 23.2988 12.624C23.2988 12.5771 23.2988 12.5433 23.2988 12.5225C23.2988 12.4964 23.2962 12.4626 23.291 12.4209C23.291 12.374 23.2832 12.3402 23.2676 12.3193C23.2572 12.2985 23.2441 12.2751 23.2285 12.249C23.2129 12.223 23.1895 12.2048 23.1582 12.1943C23.127 12.1787 23.0905 12.1709 23.0488 12.1709H11.5488C11.4811 12.1709 11.4212 12.1969 11.3691 12.249C11.3223 12.2959 11.2988 12.3532 11.2988 12.4209C11.2988 13.2959 11.6816 14.0355 12.4473 14.6396C13.4525 15.4313 14.4967 16.2568 15.5801 17.1162C15.6113 17.1423 15.7025 17.2204 15.8535 17.3506C16.0046 17.4756 16.1243 17.5719 16.2129 17.6396C16.3014 17.7074 16.416 17.7907 16.5566 17.8896C16.7025 17.9834 16.8353 18.0537 16.9551 18.1006C17.0749 18.1475 17.1868 18.1709 17.291 18.1709H17.2988H17.3066C17.4108 18.1709 17.5228 18.1475 17.6426 18.1006C17.7624 18.0537 17.8926 17.9834 18.0332 17.8896C18.179 17.7907 18.2962 17.7074 18.3848 17.6396C18.4733 17.5719 18.5931 17.4756 18.7441 17.3506C18.8952 17.2204 18.9863 17.1423 19.0176 17.1162C20.1009 16.2568 21.1452 15.4313 22.1504 14.6396C22.4316 14.4157 22.6921 14.1162 22.9316 13.7412C23.1764 13.361 23.2988 13.0173 23.2988 12.71ZM24.2988 12.4209V20.9209C24.2988 21.2646 24.1764 21.5589 23.9316 21.8037C23.6868 22.0485 23.3926 22.1709 23.0488 22.1709H11.5488C11.2051 22.1709 10.9108 22.0485 10.666 21.8037C10.4212 21.5589 10.2988 21.2646 10.2988 20.9209V12.4209C10.2988 12.0771 10.4212 11.7829 10.666 11.5381C10.9108 11.2933 11.2051 11.1709 11.5488 11.1709H23.0488C23.3926 11.1709 23.6868 11.2933 23.9316 11.5381C24.1764 11.7829 24.2988 12.0771 24.2988 12.4209Z" fill="white"/>
</svg>
    