<svg width="35" height="35" viewBox="0 0 35 35" fill="none" xmlns="http://www.w3.org/2000/svg">
    <path d="M27 0H8C3.58172 0 0 3.58172 0 8V27C0 31.4183 3.58172 35 8 35H27C31.4183 35 35 31.4183 35 27V8C35 3.58172 31.4183 0 27 0Z" fill="#E14857"/>
    <path d="M22.9551 12.3584C22.6061 12.8688 22.1842 13.3037 21.6895 13.6631C21.6947 13.736 21.6973 13.8454 21.6973 13.9912C21.6973 14.6683 21.5983 15.3454 21.4004 16.0225C21.2025 16.6943 20.9004 17.3402 20.4941 17.96C20.0931 18.5798 19.6139 19.1292 19.0566 19.6084C18.4993 20.0824 17.8275 20.4626 17.041 20.749C16.2546 21.0303 15.4134 21.1709 14.5176 21.1709C13.1061 21.1709 11.8145 20.7933 10.6426 20.0381C10.8249 20.0589 11.028 20.0693 11.252 20.0693C12.4238 20.0693 13.4681 19.71 14.3848 18.9912C13.8379 18.9808 13.3483 18.8141 12.916 18.4912C12.4837 18.1631 12.1868 17.7464 12.0254 17.2412C12.1973 17.2673 12.3561 17.2803 12.502 17.2803C12.7259 17.2803 12.9473 17.2516 13.166 17.1943C12.5827 17.0745 12.0983 16.7855 11.7129 16.3271C11.3327 15.8636 11.1426 15.3271 11.1426 14.7178V14.6865C11.4967 14.8844 11.877 14.9912 12.2832 15.0068C11.9395 14.7777 11.666 14.4782 11.4629 14.1084C11.2598 13.7386 11.1582 13.3376 11.1582 12.9053C11.1582 12.4469 11.2728 12.0225 11.502 11.6318C12.1322 12.4079 12.8978 13.0303 13.7988 13.499C14.7051 13.9626 15.6738 14.2204 16.7051 14.2725C16.6634 14.0745 16.6426 13.8818 16.6426 13.6943C16.6426 12.9964 16.8874 12.4027 17.377 11.9131C17.8717 11.4183 18.4681 11.1709 19.166 11.1709C19.8952 11.1709 20.5098 11.4365 21.0098 11.9678C21.5775 11.8584 22.1113 11.6553 22.6113 11.3584C22.4186 11.9574 22.0488 12.4209 21.502 12.749C21.9863 12.6969 22.4707 12.5667 22.9551 12.3584Z" fill="white"/>
    </svg>
    