<svg width="35" height="35" viewBox="0 0 35 35" fill="none" xmlns="http://www.w3.org/2000/svg">
    <path d="M27 0H8C3.58172 0 0 3.58172 0 8V27C0 31.4183 3.58172 35 8 35H27C31.4183 35 35 31.4183 35 27V8C35 3.58172 31.4183 0 27 0Z" fill="#E14857"/>
    <path d="M20.0645 16.5928C20.2207 16.5042 20.2988 16.3636 20.2988 16.1709C20.2988 15.9782 20.2207 15.8376 20.0645 15.749L16.0645 13.249C15.903 13.1449 15.7337 13.1396 15.5566 13.2334C15.3848 13.3271 15.2988 13.473 15.2988 13.6709V18.6709C15.2988 18.8688 15.3848 19.0146 15.5566 19.1084C15.64 19.1501 15.7207 19.1709 15.7988 19.1709C15.903 19.1709 15.9915 19.1449 16.0645 19.0928L20.0645 16.5928ZM24.291 14.999C24.2962 15.2803 24.2988 15.6709 24.2988 16.1709C24.2988 16.6709 24.2962 17.0615 24.291 17.3428C24.2858 17.624 24.2624 17.9808 24.2207 18.4131C24.1842 18.8402 24.127 19.223 24.0488 19.5615C23.9655 19.9417 23.7858 20.262 23.5098 20.5225C23.2337 20.7829 22.9108 20.9339 22.541 20.9756C21.3848 21.1058 19.6374 21.1709 17.2988 21.1709C14.9603 21.1709 13.2129 21.1058 12.0566 20.9756C11.6868 20.9339 11.3613 20.7829 11.0801 20.5225C10.804 20.262 10.6243 19.9417 10.541 19.5615C10.4681 19.223 10.4108 18.8402 10.3691 18.4131C10.3327 17.9808 10.3118 17.624 10.3066 17.3428C10.3014 17.0615 10.2988 16.6709 10.2988 16.1709C10.2988 15.6709 10.3014 15.2803 10.3066 14.999C10.3118 14.7178 10.3327 14.3636 10.3691 13.9365C10.4108 13.5042 10.4707 13.1188 10.5488 12.7803C10.6322 12.4001 10.8118 12.0798 11.0879 11.8193C11.3639 11.5589 11.6868 11.4079 12.0566 11.3662C13.2129 11.236 14.9603 11.1709 17.2988 11.1709C19.6374 11.1709 21.3848 11.236 22.541 11.3662C22.9108 11.4079 23.2337 11.5589 23.5098 11.8193C23.791 12.0798 23.9733 12.4001 24.0566 12.7803C24.1296 13.1188 24.1842 13.5042 24.2207 13.9365C24.2624 14.3636 24.2858 14.7178 24.291 14.999Z" fill="white"/>
    </svg>
    