<svg xmlns="http://www.w3.org/2000/svg" width="112" height="30" viewBox="0 0 112 30" fill="none">
    <path d="M31 20.8992C31 25.9637 26.2828 30.3297 21.2745 29.9804C20.7503 29.9222 20.168 29.6893 19.7021 29.34C14.752 25.6144 9.80184 21.947 4.9682 18.105C1.82342 15.66 -0.214868 12.5165 0.0180792 8.26699C0.309263 3.20247 4.85172 -0.0574459 9.80184 0.000766983C10.3842 0.000766983 11.0248 0.46647 11.4907 0.815747C16.5573 4.94886 21.6239 9.02376 26.6905 13.2151C29.7188 15.8347 31 18.1632 31 20.8992Z" fill="#E14857"/>
    <path d="M1 18C6.07353 22.0563 10.8162 25.8873 16 30C10.7059 30 5.96323 30 1 30C1 26.1127 1 22.2254 1 18Z" fill="#FE4F60"/>
    <path d="M15 0C20.04 0 24.408 0 29 0C29 3.86341 29 7.72683 29 12C24.352 8.01951 19.928 4.21463 15 0Z" fill="#FE4F60"/>
    <path d="M39.5466 30C38.713 30 37.9228 29.8904 37.1758 29.6712C36.4397 29.4411 35.8389 29.1342 35.3735 28.7507C35.1245 28.5644 35 28.3014 35 27.9616C35 27.7315 35.065 27.5342 35.1949 27.3699C35.3356 27.1945 35.498 27.1068 35.682 27.1068C35.8768 27.1068 36.0987 27.1836 36.3477 27.337C36.8132 27.6767 37.3003 27.9233 37.8091 28.0767C38.3179 28.2301 38.8808 28.3068 39.4978 28.3068C40.2881 28.3068 40.8943 28.1699 41.3165 27.8959C41.7386 27.611 41.9497 27.2 41.9497 26.663C41.9497 26.2466 41.7495 25.9288 41.3489 25.7096C40.9592 25.4795 40.3043 25.2603 39.3842 25.0521C38.4316 24.8438 37.6576 24.6027 37.0622 24.3288C36.4668 24.0548 36.0176 23.7041 35.7145 23.2767C35.4114 22.8493 35.2598 22.3068 35.2598 21.6493C35.2598 20.9699 35.4492 20.3616 35.8281 19.8247C36.207 19.2877 36.732 18.8712 37.4032 18.5753C38.0852 18.2685 38.8483 18.1151 39.6927 18.1151C41.2407 18.1151 42.5018 18.5315 43.4761 19.3644C43.6168 19.4849 43.7142 19.6055 43.7684 19.726C43.8333 19.8356 43.8658 19.9781 43.8658 20.1534C43.8658 20.3836 43.7954 20.5863 43.6547 20.7616C43.5248 20.926 43.3678 21.0082 43.1838 21.0082C43.0755 21.0082 42.9727 20.9918 42.8753 20.9589C42.7887 20.926 42.6696 20.8658 42.518 20.7781C42.0742 20.4493 41.6412 20.2082 41.219 20.0548C40.8077 19.8904 40.2989 19.8082 39.6927 19.8082C38.9566 19.8082 38.372 19.9616 37.939 20.2685C37.5168 20.5644 37.3058 20.9808 37.3058 21.5178C37.3058 21.9671 37.4952 22.3123 37.8741 22.5534C38.2529 22.7945 38.897 23.0192 39.8064 23.2274C40.7698 23.4466 41.5492 23.6932 42.1446 23.9671C42.7508 24.2301 43.2109 24.5699 43.5248 24.9863C43.8495 25.4027 44.0119 25.9233 44.0119 26.5479C44.0119 27.2274 43.8225 27.8301 43.4436 28.3562C43.0755 28.8712 42.5505 29.2767 41.8685 29.5726C41.1974 29.8575 40.4234 30 39.5466 30Z" fill="white"/>
    <path d="M49.203 21.6164C50.3072 21.6164 51.1245 21.8959 51.6549 22.4548C52.1962 23.0027 52.4668 23.8411 52.4668 24.9699V28.9808C52.4668 29.2767 52.3802 29.5123 52.207 29.6877C52.0338 29.8521 51.7956 29.9342 51.4925 29.9342C51.2111 29.9342 50.9783 29.8466 50.7943 29.6712C50.6211 29.4959 50.5345 29.2658 50.5345 28.9808V28.6192C50.3505 29.0466 50.0582 29.3808 49.6577 29.6219C49.268 29.863 48.8133 29.9836 48.2937 29.9836C47.7633 29.9836 47.2816 29.874 46.8486 29.6548C46.4156 29.4356 46.0746 29.1342 45.8256 28.7507C45.5766 28.3671 45.4521 27.9397 45.4521 27.4685C45.4521 26.8767 45.5983 26.411 45.8905 26.0712C46.1936 25.7315 46.6808 25.4849 47.3519 25.3315C48.0231 25.1781 48.9486 25.1014 50.1286 25.1014H50.5345V24.7233C50.5345 24.1863 50.4209 23.7973 50.1935 23.5562C49.9662 23.3041 49.5981 23.1781 49.0894 23.1781C48.7754 23.1781 48.4561 23.2274 48.1313 23.326C47.8066 23.4137 47.4223 23.5452 46.9785 23.7205C46.697 23.863 46.4913 23.9342 46.3614 23.9342C46.1666 23.9342 46.0042 23.863 45.8743 23.7205C45.7552 23.5781 45.6957 23.3918 45.6957 23.1616C45.6957 22.9753 45.739 22.8164 45.8256 22.6849C45.923 22.5425 46.08 22.411 46.2965 22.2904C46.6754 22.0822 47.1246 21.9178 47.6442 21.7973C48.1746 21.6767 48.6942 21.6164 49.203 21.6164ZM48.6997 28.5041C49.2409 28.5041 49.6793 28.3233 50.0149 27.9616C50.3613 27.589 50.5345 27.1123 50.5345 26.5315V26.1863H50.2422C49.517 26.1863 48.9541 26.2192 48.5535 26.2849C48.153 26.3507 47.8661 26.4658 47.6929 26.6301C47.5197 26.7945 47.4331 27.0192 47.4331 27.3041C47.4331 27.6548 47.5522 27.9452 47.7903 28.1753C48.0393 28.3945 48.3424 28.5041 48.6997 28.5041Z" fill="white"/>
    <path d="M55.5364 29.9507C55.2441 29.9507 55.0005 29.8685 54.8057 29.7041C54.6216 29.5288 54.5296 29.2822 54.5296 28.9644V19.1507C54.5296 18.8329 54.6216 18.5918 54.8057 18.4274C55.0005 18.263 55.2441 18.1808 55.5364 18.1808C55.8286 18.1808 56.0722 18.263 56.2671 18.4274C56.4619 18.5918 56.5593 18.8329 56.5593 19.1507V28.9644C56.5593 29.2822 56.4619 29.5288 56.2671 29.7041C56.0722 29.8685 55.8286 29.9507 55.5364 29.9507Z" fill="white"/>
    <path d="M64.9365 27.6493C65.1205 27.6493 65.2666 27.7205 65.3749 27.863C65.494 28.0055 65.5535 28.1973 65.5535 28.4384C65.5535 28.7781 65.3532 29.063 64.9527 29.2931C64.5846 29.5014 64.1679 29.6712 63.7024 29.8027C63.2369 29.9233 62.7931 29.9836 62.3709 29.9836C61.0935 29.9836 60.0814 29.611 59.3345 28.8658C58.5875 28.1205 58.2141 27.1014 58.2141 25.8082C58.2141 24.9863 58.3764 24.2575 58.7012 23.6219C59.0259 22.9863 59.4806 22.4932 60.0652 22.1425C60.6605 21.7918 61.3317 21.6164 62.0786 21.6164C62.7931 21.6164 63.4155 21.7753 63.946 22.0932C64.4764 22.411 64.8877 22.8603 65.18 23.4411C65.4723 24.0219 65.6184 24.7068 65.6184 25.4959C65.6184 25.9671 65.4128 26.2027 65.0014 26.2027H60.2113C60.2762 26.9589 60.4873 27.5178 60.8446 27.8794C61.2018 28.2301 61.7214 28.4055 62.4034 28.4055C62.7498 28.4055 63.0529 28.3616 63.3127 28.274C63.5833 28.1863 63.8864 28.0658 64.222 27.9123C64.5468 27.737 64.7849 27.6493 64.9365 27.6493ZM62.1273 23.063C61.5753 23.063 61.1314 23.2384 60.7958 23.589C60.4711 23.9397 60.2762 24.4438 60.2113 25.1014H63.881C63.8594 24.4329 63.697 23.9288 63.3939 23.589C63.0908 23.2384 62.6686 23.063 62.1273 23.063Z" fill="white"/>
    <path d="M70.1528 29.9836C68.9729 29.9836 68.0203 29.7479 67.295 29.2767C66.9486 29.0685 66.7754 28.7726 66.7754 28.389C66.7754 28.1699 66.8349 27.9945 66.954 27.863C67.0731 27.7205 67.2192 27.6493 67.3924 27.6493C67.5764 27.6493 67.8308 27.737 68.1556 27.9123C68.502 28.0767 68.8159 28.2027 69.0974 28.2904C69.3896 28.3781 69.7577 28.4219 70.2015 28.4219C70.6562 28.4219 71.008 28.3452 71.257 28.1918C71.5168 28.0384 71.6467 27.8247 71.6467 27.5507C71.6467 27.3644 71.5926 27.2164 71.4843 27.1068C71.3869 26.9973 71.2029 26.8986 70.9322 26.811C70.6724 26.7123 70.2719 26.6027 69.7306 26.4822C68.7672 26.2849 68.0744 26.0055 67.6522 25.6438C67.2409 25.2822 67.0352 24.7836 67.0352 24.1479C67.0352 23.6658 67.1759 23.2329 67.4574 22.8493C67.7388 22.4548 68.1231 22.1534 68.6102 21.9452C69.1082 21.726 69.6711 21.6164 70.299 21.6164C70.7536 21.6164 71.192 21.6767 71.6142 21.7973C72.0364 21.9068 72.4153 22.0712 72.7508 22.2904C73.0972 22.5096 73.2705 22.8 73.2705 23.1616C73.2705 23.3808 73.2109 23.5671 73.0918 23.7205C72.9728 23.863 72.8266 23.9342 72.6534 23.9342C72.5343 23.9342 72.4153 23.9123 72.2962 23.8685C72.1879 23.8137 72.0472 23.737 71.874 23.6384C71.5601 23.474 71.2895 23.3534 71.0621 23.2767C70.8348 23.189 70.5533 23.1452 70.2178 23.1452C69.8172 23.1452 69.4979 23.2274 69.2597 23.3918C69.0324 23.5562 68.9188 23.7808 68.9188 24.0658C68.9188 24.3397 69.0378 24.5479 69.276 24.6904C69.5141 24.8329 69.9742 24.9753 70.6562 25.1178C71.3815 25.2712 71.9498 25.4466 72.3611 25.6438C72.7725 25.8411 73.0648 26.0877 73.238 26.3836C73.422 26.6795 73.514 27.0575 73.514 27.5178C73.514 28.263 73.2055 28.8603 72.5885 29.3096C71.9823 29.7589 71.1704 29.9836 70.1528 29.9836Z" fill="white"/>
    <path d="M81.4437 27.6493C81.6277 27.6493 81.7739 27.7205 81.8821 27.863C82.0012 28.0055 82.0607 28.1973 82.0607 28.4384C82.0607 28.7781 81.8605 29.063 81.4599 29.2931C81.0919 29.5014 80.6751 29.6712 80.2096 29.8027C79.7442 29.9233 79.3003 29.9836 78.8782 29.9836C77.6008 29.9836 76.5886 29.611 75.8417 28.8658C75.0948 28.1205 74.7213 27.1014 74.7213 25.8082C74.7213 24.9863 74.8837 24.2575 75.2084 23.6219C75.5332 22.9863 75.9879 22.4932 76.5724 22.1425C77.1678 21.7918 77.8389 21.6164 78.5859 21.6164C79.3003 21.6164 79.9228 21.7753 80.4532 22.0932C80.9836 22.411 81.395 22.8603 81.6873 23.4411C81.9796 24.0219 82.1257 24.7068 82.1257 25.4959C82.1257 25.9671 81.92 26.2027 81.5087 26.2027H76.7185C76.7835 26.9589 76.9946 27.5178 77.3518 27.8794C77.709 28.2301 78.2287 28.4055 78.9106 28.4055C79.257 28.4055 79.5601 28.3616 79.8199 28.274C80.0906 28.1863 80.3937 28.0658 80.7293 27.9123C81.054 27.737 81.2922 27.6493 81.4437 27.6493ZM78.6346 23.063C78.0825 23.063 77.6387 23.2384 77.3031 23.589C76.9783 23.9397 76.7835 24.4438 76.7185 25.1014H80.3883C80.3666 24.4329 80.2042 23.9288 79.9011 23.589C79.598 23.2384 79.1759 23.063 78.6346 23.063Z" fill="white"/>
    <path d="M88.3975 21.6164C89.3501 21.6164 90.0592 21.8904 90.5246 22.4384C90.9901 22.9863 91.2229 23.8137 91.2229 24.9205V28.9644C91.2229 29.2712 91.1308 29.5123 90.9468 29.6877C90.7736 29.863 90.5301 29.9507 90.2161 29.9507C89.9022 29.9507 89.6532 29.863 89.4692 29.6877C89.2852 29.5123 89.1931 29.2712 89.1931 28.9644V25.0356C89.1931 24.411 89.0741 23.9562 88.8359 23.6712C88.6086 23.3863 88.246 23.2438 87.748 23.2438C87.1634 23.2438 86.6925 23.4301 86.3353 23.8027C85.9889 24.1753 85.8157 24.674 85.8157 25.2986V28.9644C85.8157 29.2712 85.7237 29.5123 85.5397 29.6877C85.3556 29.863 85.1067 29.9507 84.7927 29.9507C84.4788 29.9507 84.2298 29.863 84.0458 29.6877C83.8726 29.5123 83.786 29.2712 83.786 28.9644V22.6027C83.786 22.3178 83.878 22.0877 84.062 21.9123C84.2461 21.737 84.495 21.6493 84.809 21.6493C85.0904 21.6493 85.3178 21.737 85.491 21.9123C85.675 22.0767 85.767 22.2959 85.767 22.5699V23.0137C86.0376 22.5644 86.4003 22.2192 86.8549 21.9781C87.3096 21.737 87.8238 21.6164 88.3975 21.6164Z" fill="white"/>
    <path d="M96.1585 29.9836C94.9785 29.9836 94.0259 29.7479 93.3007 29.2767C92.9542 29.0685 92.781 28.7726 92.781 28.389C92.781 28.1699 92.8406 27.9945 92.9597 27.863C93.0787 27.7205 93.2249 27.6493 93.3981 27.6493C93.5821 27.6493 93.8365 27.737 94.1612 27.9123C94.5077 28.0767 94.8216 28.2027 95.103 28.2904C95.3953 28.3781 95.7634 28.4219 96.2072 28.4219C96.6618 28.4219 97.0137 28.3452 97.2626 28.1918C97.5224 28.0384 97.6523 27.8247 97.6523 27.5507C97.6523 27.3644 97.5982 27.2164 97.49 27.1068C97.3925 26.9973 97.2085 26.8986 96.9379 26.811C96.6781 26.7123 96.2776 26.6027 95.7363 26.4822C94.7729 26.2849 94.0801 26.0055 93.6579 25.6438C93.2465 25.2822 93.0408 24.7836 93.0408 24.1479C93.0408 23.6658 93.1816 23.2329 93.463 22.8493C93.7445 22.4548 94.1288 22.1534 94.6159 21.9452C95.1139 21.726 95.6768 21.6164 96.3046 21.6164C96.7593 21.6164 97.1977 21.6767 97.6199 21.7973C98.0421 21.9068 98.4209 22.0712 98.7565 22.2904C99.1029 22.5096 99.2761 22.8 99.2761 23.1616C99.2761 23.3808 99.2166 23.5671 99.0975 23.7205C98.9784 23.863 98.8323 23.9342 98.6591 23.9342C98.54 23.9342 98.4209 23.9123 98.3019 23.8685C98.1936 23.8137 98.0529 23.737 97.8797 23.6384C97.5658 23.474 97.2951 23.3534 97.0678 23.2767C96.8405 23.189 96.559 23.1452 96.2234 23.1452C95.8229 23.1452 95.5036 23.2274 95.2654 23.3918C95.0381 23.5562 94.9244 23.7808 94.9244 24.0658C94.9244 24.3397 95.0435 24.5479 95.2816 24.6904C95.5198 24.8329 95.9799 24.9753 96.6618 25.1178C97.3871 25.2712 97.9555 25.4466 98.3668 25.6438C98.7782 25.8411 99.0704 26.0877 99.2436 26.3836C99.4277 26.6795 99.5197 27.0575 99.5197 27.5178C99.5197 28.263 99.2112 28.8603 98.5941 29.3096C97.9879 29.7589 97.176 29.9836 96.1585 29.9836Z" fill="white"/>
    <path d="M107.449 27.6493C107.633 27.6493 107.78 27.7205 107.888 27.863C108.007 28.0055 108.066 28.1973 108.066 28.4384C108.066 28.7781 107.866 29.063 107.466 29.2931C107.098 29.5014 106.681 29.6712 106.215 29.8027C105.75 29.9233 105.306 29.9836 104.884 29.9836C103.606 29.9836 102.594 29.611 101.847 28.8658C101.1 28.1205 100.727 27.1014 100.727 25.8082C100.727 24.9863 100.889 24.2575 101.214 23.6219C101.539 22.9863 101.994 22.4932 102.578 22.1425C103.173 21.7918 103.845 21.6164 104.592 21.6164C105.306 21.6164 105.928 21.7753 106.459 22.0932C106.989 22.411 107.401 22.8603 107.693 23.4411C107.985 24.0219 108.131 24.7068 108.131 25.4959C108.131 25.9671 107.926 26.2027 107.514 26.2027H102.724C102.789 26.9589 103 27.5178 103.357 27.8794C103.715 28.2301 104.234 28.4055 104.916 28.4055C105.263 28.4055 105.566 28.3616 105.826 28.274C106.096 28.1863 106.399 28.0658 106.735 27.9123C107.06 27.737 107.298 27.6493 107.449 27.6493ZM104.64 23.063C104.088 23.063 103.644 23.2384 103.309 23.589C102.984 23.9397 102.789 24.4438 102.724 25.1014H106.394C106.372 24.4329 106.21 23.9288 105.907 23.589C105.604 23.2384 105.182 23.063 104.64 23.063Z" fill="white"/>
    <path d="M110.798 29.9507C110.506 29.9507 110.263 29.8685 110.068 29.7041C109.884 29.5288 109.792 29.2822 109.792 28.9644V22.6192C109.792 22.3014 109.884 22.0603 110.068 21.8959C110.263 21.7315 110.506 21.6493 110.798 21.6493C111.091 21.6493 111.334 21.7315 111.529 21.8959C111.724 22.0603 111.821 22.3014 111.821 22.6192V28.9644C111.821 29.2822 111.724 29.5288 111.529 29.7041C111.334 29.8685 111.091 29.9507 110.798 29.9507ZM110.798 20.1863C110.43 20.1863 110.138 20.0877 109.922 19.8904C109.705 19.6822 109.597 19.4137 109.597 19.0849C109.597 18.7562 109.705 18.4932 109.922 18.2959C110.138 18.0986 110.43 18 110.798 18C111.156 18 111.443 18.0986 111.659 18.2959C111.886 18.4932 112 18.7562 112 19.0849C112 19.4137 111.892 19.6822 111.675 19.8904C111.459 20.0877 111.166 20.1863 110.798 20.1863Z" fill="white"/>
</svg>