<svg xmlns="http://www.w3.org/2000/svg" width="68" height="66" viewBox="0 0 68 66" fill="none">
    <path d="M55.8185 29.8802C55.8185 37.1012 49.0955 43.3262 41.9575 42.8282C41.2105 42.7452 40.3805 42.4132 39.7165 41.9152C32.6615 36.6032 25.6065 31.3742 18.7175 25.8962C14.2355 22.4102 11.3305 17.9281 11.6625 11.8691C12.0775 4.64813 18.5515 0.000124715 25.6065 0.0831248C26.4365 0.0831248 27.3495 0.747126 28.0135 1.24513C35.2345 7.13813 42.4555 12.9481 49.6765 18.9241C53.9925 22.6592 55.8185 25.9792 55.8185 29.8802Z" fill="#E14857"/>
    <path d="M12.0762 25.0654C19.7122 31.0414 26.8502 36.6854 34.6522 42.7444C26.6842 42.7444 19.5462 42.7444 12.0762 42.7444C12.0762 37.0174 12.0762 31.2904 12.0762 25.0654Z" fill="#FE4F60"/>
    <path d="M32.3301 0C39.8001 0 46.2741 0 53.0801 0C53.0801 5.47801 53.0801 10.956 53.0801 17.015C46.1911 11.371 39.6341 5.97601 32.3301 0Z" fill="#FE4F60"/>
    <path d="M3.84319 65.0494C3.43252 65.0494 3.02186 65.0168 2.61119 64.9514C2.20052 64.8954 1.81319 64.8068 1.44919 64.6854C1.08519 64.5548 0.758524 64.3961 0.469191 64.2094C0.301191 64.0974 0.184524 63.9621 0.119191 63.8034C0.0538576 63.6448 0.0305243 63.4908 0.049191 63.3414C0.077191 63.1828 0.137858 63.0474 0.231191 62.9354C0.333858 62.8141 0.459858 62.7394 0.609191 62.7114C0.758524 62.6834 0.921858 62.7254 1.09919 62.8374C1.50986 63.0801 1.94386 63.2574 2.40119 63.3694C2.85852 63.4814 3.33919 63.5374 3.84319 63.5374C4.58052 63.5374 5.11719 63.4161 5.45319 63.1734C5.78919 62.9214 5.95719 62.5994 5.95719 62.2074C5.95719 61.8808 5.83586 61.6241 5.59319 61.4374C5.35986 61.2508 4.95386 61.0968 4.37519 60.9754L2.83519 60.6534C1.94852 60.4668 1.28586 60.1541 0.847191 59.7154C0.417858 59.2674 0.203191 58.6794 0.203191 57.9514C0.203191 57.4941 0.296524 57.0788 0.483191 56.7054C0.669858 56.3321 0.931191 56.0101 1.26719 55.7394C1.61252 55.4688 2.01852 55.2634 2.48519 55.1234C2.96119 54.9741 3.48386 54.8994 4.05319 54.8994C4.61319 54.8994 5.14519 54.9694 5.64919 55.1094C6.15319 55.2494 6.60586 55.4548 7.00719 55.7254C7.15652 55.8281 7.25453 55.9541 7.30119 56.1034C7.35719 56.2528 7.37119 56.4021 7.34319 56.5514C7.31519 56.6914 7.24986 56.8128 7.14719 56.9154C7.04453 57.0181 6.91386 57.0788 6.75519 57.0974C6.60586 57.1161 6.43319 57.0694 6.23719 56.9574C5.89186 56.7614 5.54186 56.6214 5.18719 56.5374C4.83252 56.4534 4.44986 56.4114 4.03919 56.4114C3.60986 56.4114 3.24119 56.4721 2.93319 56.5934C2.62519 56.7148 2.38719 56.8874 2.21919 57.1114C2.06052 57.3261 1.98119 57.5828 1.98119 57.8814C1.98119 58.2174 2.09319 58.4881 2.31719 58.6934C2.54119 58.8894 2.92386 59.0434 3.46519 59.1554L4.99119 59.4774C5.91519 59.6734 6.60119 59.9814 7.04919 60.4014C7.50653 60.8214 7.73519 61.3814 7.73519 62.0814C7.73519 62.5294 7.64186 62.9354 7.45519 63.2994C7.27786 63.6634 7.01652 63.9761 6.67119 64.2374C6.33519 64.4988 5.92919 64.6994 5.45319 64.8394C4.97719 64.9794 4.44052 65.0494 3.84319 65.0494Z" fill="#231656"/>
    <path d="M11.3592 65.0494C10.8646 65.0494 10.4212 64.9561 10.0292 64.7694C9.64656 64.5734 9.34322 64.3121 9.11922 63.9854C8.90456 63.6588 8.79722 63.2901 8.79722 62.8794C8.79722 62.3754 8.92789 61.9788 9.18922 61.6894C9.45056 61.3908 9.87522 61.1761 10.4632 61.0454C11.0512 60.9148 11.8399 60.8494 12.8292 60.8494H13.5292V61.8574H12.8432C12.2646 61.8574 11.8026 61.8854 11.4572 61.9414C11.1119 61.9974 10.8646 62.0954 10.7152 62.2354C10.5752 62.3661 10.5052 62.5528 10.5052 62.7954C10.5052 63.1034 10.6126 63.3554 10.8272 63.5514C11.0419 63.7474 11.3406 63.8454 11.7232 63.8454C12.0312 63.8454 12.3019 63.7754 12.5352 63.6354C12.7779 63.4861 12.9692 63.2854 13.1092 63.0334C13.2492 62.7814 13.3192 62.4921 13.3192 62.1654V60.5554C13.3192 60.0888 13.2166 59.7528 13.0112 59.5474C12.8059 59.3421 12.4606 59.2394 11.9752 59.2394C11.7046 59.2394 11.4106 59.2721 11.0932 59.3374C10.7852 59.4028 10.4586 59.5148 10.1132 59.6734C9.93589 59.7574 9.77722 59.7808 9.63722 59.7434C9.50656 59.7061 9.40389 59.6314 9.32922 59.5194C9.25455 59.3981 9.21722 59.2674 9.21722 59.1274C9.21722 58.9874 9.25455 58.8521 9.32922 58.7214C9.40389 58.5814 9.52989 58.4788 9.70722 58.4134C10.1366 58.2361 10.5472 58.1101 10.9392 58.0354C11.3406 57.9608 11.7046 57.9234 12.0312 57.9234C12.7032 57.9234 13.2539 58.0261 13.6832 58.2314C14.1219 58.4368 14.4486 58.7494 14.6632 59.1694C14.8779 59.5801 14.9852 60.1121 14.9852 60.7654V64.1254C14.9852 64.4148 14.9152 64.6388 14.7752 64.7974C14.6352 64.9468 14.4346 65.0214 14.1732 65.0214C13.9119 65.0214 13.7066 64.9468 13.5572 64.7974C13.4172 64.6388 13.3472 64.4148 13.3472 64.1254V63.4534H13.4592C13.3939 63.7801 13.2632 64.0648 13.0672 64.3074C12.8806 64.5408 12.6426 64.7228 12.3532 64.8534C12.0639 64.9841 11.7326 65.0494 11.3592 65.0494Z" fill="#231656"/>
    <path d="M19.0995 65.0494C18.3248 65.0494 17.7415 64.8301 17.3495 64.3914C16.9575 63.9434 16.7615 63.2901 16.7615 62.4314V55.8094C16.7615 55.5201 16.8361 55.3008 16.9855 55.1514C17.1348 55.0021 17.3495 54.9274 17.6295 54.9274C17.9095 54.9274 18.1241 55.0021 18.2735 55.1514C18.4321 55.3008 18.5115 55.5201 18.5115 55.8094V62.3474C18.5115 62.7768 18.6001 63.0941 18.7775 63.2994C18.9641 63.5048 19.2255 63.6074 19.5615 63.6074C19.6361 63.6074 19.7061 63.6074 19.7715 63.6074C19.8368 63.5981 19.9021 63.5888 19.9675 63.5794C20.0981 63.5608 20.1868 63.5981 20.2335 63.6914C20.2801 63.7754 20.3035 63.9528 20.3035 64.2234C20.3035 64.4568 20.2568 64.6388 20.1635 64.7694C20.0701 64.9001 19.9161 64.9794 19.7015 65.0074C19.6081 65.0168 19.5101 65.0261 19.4075 65.0354C19.3048 65.0448 19.2021 65.0494 19.0995 65.0494Z" fill="#231656"/>
    <path d="M24.5378 65.0494C23.7631 65.0494 23.0958 64.9048 22.5358 64.6154C21.9758 64.3261 21.5418 63.9154 21.2338 63.3834C20.9352 62.8514 20.7858 62.2214 20.7858 61.4934C20.7858 60.7841 20.9305 60.1634 21.2198 59.6314C21.5185 59.0994 21.9245 58.6841 22.4378 58.3854C22.9605 58.0774 23.5532 57.9234 24.2158 57.9234C24.7011 57.9234 25.1351 58.0028 25.5178 58.1614C25.9098 58.3201 26.2411 58.5488 26.5118 58.8474C26.7918 59.1461 27.0018 59.5101 27.1418 59.9394C27.2912 60.3594 27.3658 60.8354 27.3658 61.3674C27.3658 61.5354 27.3052 61.6661 27.1838 61.7594C27.0718 61.8434 26.9085 61.8854 26.6938 61.8854H22.1998V60.8774H26.1338L25.9098 61.0874C25.9098 60.6581 25.8445 60.2988 25.7138 60.0094C25.5925 59.7201 25.4105 59.5008 25.1678 59.3514C24.9345 59.1928 24.6405 59.1134 24.2858 59.1134C23.8938 59.1134 23.5578 59.2068 23.2778 59.3934C23.0072 59.5708 22.7972 59.8274 22.6478 60.1634C22.5078 60.4901 22.4378 60.8821 22.4378 61.3394V61.4374C22.4378 62.2028 22.6152 62.7768 22.9698 63.1594C23.3338 63.5328 23.8658 63.7194 24.5658 63.7194C24.8085 63.7194 25.0792 63.6914 25.3778 63.6354C25.6858 63.5701 25.9752 63.4628 26.2458 63.3134C26.4418 63.2014 26.6145 63.1548 26.7638 63.1734C26.9132 63.1828 27.0298 63.2341 27.1138 63.3274C27.2071 63.4208 27.2631 63.5374 27.2818 63.6774C27.3005 63.8081 27.2725 63.9434 27.1978 64.0834C27.1325 64.2234 27.0158 64.3448 26.8478 64.4474C26.5212 64.6528 26.1432 64.8068 25.7138 64.9094C25.2938 65.0028 24.9018 65.0494 24.5378 65.0494Z" fill="#231656"/>
    <path d="M31.2577 65.0494C30.8564 65.0494 30.4317 65.0074 29.9837 64.9234C29.5357 64.8394 29.1344 64.6948 28.7797 64.4894C28.6304 64.3961 28.523 64.2888 28.4577 64.1674C28.4017 64.0368 28.3784 63.9108 28.3877 63.7894C28.4064 63.6588 28.453 63.5468 28.5277 63.4534C28.6117 63.3601 28.7144 63.2994 28.8357 63.2714C28.9664 63.2434 29.1064 63.2668 29.2557 63.3414C29.629 63.5188 29.979 63.6448 30.3057 63.7194C30.6324 63.7848 30.9544 63.8174 31.2717 63.8174C31.7197 63.8174 32.051 63.7428 32.2657 63.5934C32.4897 63.4348 32.6017 63.2294 32.6017 62.9774C32.6017 62.7628 32.527 62.5994 32.3777 62.4874C32.2377 62.3661 32.023 62.2774 31.7337 62.2214L30.3337 61.9554C29.755 61.8434 29.3117 61.6334 29.0037 61.3254C28.705 61.0081 28.5557 60.6021 28.5557 60.1074C28.5557 59.6594 28.677 59.2721 28.9197 58.9454C29.1717 58.6188 29.517 58.3668 29.9557 58.1894C30.3944 58.0121 30.8984 57.9234 31.4677 57.9234C31.8784 57.9234 32.261 57.9701 32.6157 58.0634C32.9797 58.1474 33.3297 58.2828 33.6657 58.4694C33.8057 58.5441 33.899 58.6421 33.9457 58.7634C34.0017 58.8848 34.0157 59.0108 33.9877 59.1414C33.9597 59.2628 33.9037 59.3748 33.8197 59.4774C33.7357 59.5708 33.6284 59.6314 33.4977 59.6594C33.3764 59.6781 33.2364 59.6501 33.0777 59.5754C32.7884 59.4261 32.5084 59.3188 32.2377 59.2534C31.9764 59.1881 31.7244 59.1554 31.4817 59.1554C31.0244 59.1554 30.6837 59.2348 30.4597 59.3934C30.245 59.5521 30.1377 59.7621 30.1377 60.0234C30.1377 60.2194 30.203 60.3828 30.3337 60.5134C30.4644 60.6441 30.665 60.7328 30.9357 60.7794L32.3357 61.0454C32.9424 61.1574 33.3997 61.3628 33.7077 61.6614C34.025 61.9601 34.1837 62.3614 34.1837 62.8654C34.1837 63.5468 33.9177 64.0834 33.3857 64.4754C32.8537 64.8581 32.1444 65.0494 31.2577 65.0494Z" fill="#231656"/>
    <path d="M38.9616 65.0494C38.187 65.0494 37.5196 64.9048 36.9596 64.6154C36.3996 64.3261 35.9656 63.9154 35.6576 63.3834C35.359 62.8514 35.2096 62.2214 35.2096 61.4934C35.2096 60.7841 35.3543 60.1634 35.6436 59.6314C35.9423 59.0994 36.3483 58.6841 36.8616 58.3854C37.3843 58.0774 37.977 57.9234 38.6396 57.9234C39.125 57.9234 39.559 58.0028 39.9416 58.1614C40.3336 58.3201 40.665 58.5488 40.9356 58.8474C41.2156 59.1461 41.4256 59.5101 41.5656 59.9394C41.715 60.3594 41.7896 60.8354 41.7896 61.3674C41.7896 61.5354 41.729 61.6661 41.6076 61.7594C41.4956 61.8434 41.3323 61.8854 41.1176 61.8854H36.6236V60.8774H40.5576L40.3336 61.0874C40.3336 60.6581 40.2683 60.2988 40.1376 60.0094C40.0163 59.7201 39.8343 59.5008 39.5916 59.3514C39.3583 59.1928 39.0643 59.1134 38.7096 59.1134C38.3176 59.1134 37.9816 59.2068 37.7016 59.3934C37.431 59.5708 37.221 59.8274 37.0716 60.1634C36.9316 60.4901 36.8616 60.8821 36.8616 61.3394V61.4374C36.8616 62.2028 37.039 62.7768 37.3936 63.1594C37.7576 63.5328 38.2896 63.7194 38.9896 63.7194C39.2323 63.7194 39.503 63.6914 39.8016 63.6354C40.1096 63.5701 40.399 63.4628 40.6696 63.3134C40.8656 63.2014 41.0383 63.1548 41.1876 63.1734C41.337 63.1828 41.4536 63.2341 41.5376 63.3274C41.631 63.4208 41.687 63.5374 41.7056 63.6774C41.7243 63.8081 41.6963 63.9434 41.6216 64.0834C41.5563 64.2234 41.4396 64.3448 41.2716 64.4474C40.945 64.6528 40.567 64.8068 40.1376 64.9094C39.7176 65.0028 39.3256 65.0494 38.9616 65.0494Z" fill="#231656"/>
    <path d="M44.0435 65.0214C43.7635 65.0214 43.5489 64.9468 43.3995 64.7974C43.2502 64.6388 43.1755 64.4148 43.1755 64.1254V58.8334C43.1755 58.5441 43.2502 58.3248 43.3995 58.1754C43.5489 58.0261 43.7589 57.9514 44.0295 57.9514C44.3002 57.9514 44.5102 58.0261 44.6595 58.1754C44.8089 58.3248 44.8835 58.5441 44.8835 58.8334V59.7854L44.7295 59.4354C44.9349 58.9408 45.2522 58.5674 45.6815 58.3154C46.1202 58.0541 46.6149 57.9234 47.1655 57.9234C47.7162 57.9234 48.1689 58.0261 48.5235 58.2314C48.8782 58.4368 49.1442 58.7494 49.3215 59.1694C49.4989 59.5801 49.5875 60.1028 49.5875 60.7374V64.1254C49.5875 64.4148 49.5129 64.6388 49.3635 64.7974C49.2142 64.9468 48.9995 65.0214 48.7195 65.0214C48.4395 65.0214 48.2202 64.9468 48.0615 64.7974C47.9122 64.6388 47.8375 64.4148 47.8375 64.1254V60.8214C47.8375 60.2894 47.7349 59.9021 47.5295 59.6594C47.3335 59.4168 47.0255 59.2954 46.6055 59.2954C46.0922 59.2954 45.6815 59.4588 45.3735 59.7854C45.0749 60.1028 44.9255 60.5274 44.9255 61.0594V64.1254C44.9255 64.7228 44.6315 65.0214 44.0435 65.0214Z" fill="#231656"/>
    <path d="M53.871 65.0494C53.4697 65.0494 53.045 65.0074 52.597 64.9234C52.149 64.8394 51.7477 64.6948 51.393 64.4894C51.2437 64.3961 51.1363 64.2888 51.071 64.1674C51.015 64.0368 50.9917 63.9108 51.001 63.7894C51.0197 63.6588 51.0663 63.5468 51.141 63.4534C51.225 63.3601 51.3277 63.2994 51.449 63.2714C51.5797 63.2434 51.7197 63.2668 51.869 63.3414C52.2423 63.5188 52.5923 63.6448 52.919 63.7194C53.2457 63.7848 53.5677 63.8174 53.885 63.8174C54.333 63.8174 54.6643 63.7428 54.879 63.5934C55.103 63.4348 55.215 63.2294 55.215 62.9774C55.215 62.7628 55.1403 62.5994 54.991 62.4874C54.851 62.3661 54.6363 62.2774 54.347 62.2214L52.947 61.9554C52.3683 61.8434 51.925 61.6334 51.617 61.3254C51.3183 61.0081 51.169 60.6021 51.169 60.1074C51.169 59.6594 51.2903 59.2721 51.533 58.9454C51.785 58.6188 52.1303 58.3668 52.569 58.1894C53.0077 58.0121 53.5117 57.9234 54.081 57.9234C54.4917 57.9234 54.8743 57.9701 55.229 58.0634C55.593 58.1474 55.943 58.2828 56.279 58.4694C56.419 58.5441 56.5123 58.6421 56.559 58.7634C56.615 58.8848 56.629 59.0108 56.601 59.1414C56.573 59.2628 56.517 59.3748 56.433 59.4774C56.349 59.5708 56.2417 59.6314 56.111 59.6594C55.9897 59.6781 55.8497 59.6501 55.691 59.5754C55.4017 59.4261 55.1217 59.3188 54.851 59.2534C54.5897 59.1881 54.3377 59.1554 54.095 59.1554C53.6377 59.1554 53.297 59.2348 53.073 59.3934C52.8583 59.5521 52.751 59.7621 52.751 60.0234C52.751 60.2194 52.8163 60.3828 52.947 60.5134C53.0777 60.6441 53.2783 60.7328 53.549 60.7794L54.949 61.0454C55.5557 61.1574 56.013 61.3628 56.321 61.6614C56.6383 61.9601 56.797 62.3614 56.797 62.8654C56.797 63.5468 56.531 64.0834 55.999 64.4754C55.467 64.8581 54.7577 65.0494 53.871 65.0494Z" fill="#231656"/>
    <path d="M61.5749 65.0494C60.8003 65.0494 60.1329 64.9048 59.5729 64.6154C59.0129 64.3261 58.5789 63.9154 58.2709 63.3834C57.9723 62.8514 57.8229 62.2214 57.8229 61.4934C57.8229 60.7841 57.9676 60.1634 58.2569 59.6314C58.5556 59.0994 58.9616 58.6841 59.4749 58.3854C59.9976 58.0774 60.5903 57.9234 61.2529 57.9234C61.7383 57.9234 62.1723 58.0028 62.5549 58.1614C62.9469 58.3201 63.2783 58.5488 63.5489 58.8474C63.8289 59.1461 64.0389 59.5101 64.1789 59.9394C64.3283 60.3594 64.4029 60.8354 64.4029 61.3674C64.4029 61.5354 64.3423 61.6661 64.2209 61.7594C64.1089 61.8434 63.9456 61.8854 63.7309 61.8854H59.2369V60.8774H63.1709L62.9469 61.0874C62.9469 60.6581 62.8816 60.2988 62.7509 60.0094C62.6296 59.7201 62.4476 59.5008 62.2049 59.3514C61.9716 59.1928 61.6776 59.1134 61.3229 59.1134C60.9309 59.1134 60.5949 59.2068 60.3149 59.3934C60.0443 59.5708 59.8343 59.8274 59.6849 60.1634C59.5449 60.4901 59.4749 60.8821 59.4749 61.3394V61.4374C59.4749 62.2028 59.6523 62.7768 60.0069 63.1594C60.3709 63.5328 60.9029 63.7194 61.6029 63.7194C61.8456 63.7194 62.1163 63.6914 62.4149 63.6354C62.7229 63.5701 63.0123 63.4628 63.2829 63.3134C63.4789 63.2014 63.6516 63.1548 63.8009 63.1734C63.9503 63.1828 64.0669 63.2341 64.1509 63.3274C64.2443 63.4208 64.3003 63.5374 64.3189 63.6774C64.3376 63.8081 64.3096 63.9434 64.2349 64.0834C64.1696 64.2234 64.0529 64.3448 63.8849 64.4474C63.5583 64.6528 63.1803 64.8068 62.7509 64.9094C62.3309 65.0028 61.9389 65.0494 61.5749 65.0494Z" fill="#231656"/>
    <path d="M66.6568 65.0074C66.3768 65.0074 66.1621 64.9234 66.0128 64.7554C65.8635 64.5874 65.7888 64.3541 65.7888 64.0554V58.9174C65.7888 58.6094 65.8635 58.3761 66.0128 58.2174C66.1621 58.0494 66.3768 57.9654 66.6568 57.9654C66.9368 57.9654 67.1515 58.0494 67.3008 58.2174C67.4595 58.3761 67.5388 58.6094 67.5388 58.9174V64.0554C67.5388 64.3541 67.4641 64.5874 67.3148 64.7554C67.1655 64.9234 66.9462 65.0074 66.6568 65.0074ZM66.6568 56.6634C66.3301 56.6634 66.0735 56.5841 65.8868 56.4254C65.7095 56.2574 65.6208 56.0288 65.6208 55.7394C65.6208 55.4408 65.7095 55.2121 65.8868 55.0534C66.0735 54.8948 66.3301 54.8154 66.6568 54.8154C66.9928 54.8154 67.2495 54.8948 67.4268 55.0534C67.6041 55.2121 67.6928 55.4408 67.6928 55.7394C67.6928 56.0288 67.6041 56.2574 67.4268 56.4254C67.2495 56.5841 66.9928 56.6634 66.6568 56.6634Z" fill="#231656"/>
</svg>