<svg width="45" height="43" viewBox="0 0 45 43" fill="none" xmlns="http://www.w3.org/2000/svg">
<g id="Group">
<path id="Vector" d="M44.4553 29.8802C44.4553 37.1012 37.7323 43.3262 30.5942 42.8282C29.8472 42.7452 29.0172 42.4132 28.3532 41.9152C21.2982 36.6032 14.2432 31.3742 7.35421 25.8962C2.87221 22.4102 -0.032796 17.9281 0.299204 11.8691C0.714205 4.64813 7.18821 0.000124715 14.2432 0.0831248C15.0732 0.0831248 15.9862 0.747126 16.6502 1.24513C23.8712 7.13813 31.0922 12.9481 38.3132 18.9241C42.6293 22.6592 44.4553 25.9792 44.4553 29.8802Z" fill="#E14857"/>
<path id="Vector_2" d="M0.714844 25.0654C8.35085 31.0414 15.4889 36.6854 23.2909 42.7444C15.3229 42.7444 8.18485 42.7444 0.714844 42.7444C0.714844 37.0174 0.714844 31.2904 0.714844 25.0654Z" fill="#FE4F60"/>
<path id="Vector_3" d="M20.9668 0C28.4368 0 34.9108 0 41.7168 0C41.7168 5.47801 41.7168 10.956 41.7168 17.015C34.8278 11.371 28.2708 5.97601 20.9668 0Z" fill="#FE4F60"/>
</g>
</svg>
