<svg width="24" height="24" viewBox="0 0 24 24" fill="none" xmlns="http://www.w3.org/2000/svg">
<g id="solar:calendar-linear">
<g id="Group">
<path id="Vector" d="M2 11.05C2 7.65611 2 5.95871 3.0548 4.90481C4.1087 3.85001 5.8061 3.85001 9.2 3.85001H12.8C16.1939 3.85001 17.8913 3.85001 18.9452 4.90481C20 5.95871 20 7.65611 20 11.05V12.85C20 16.2439 20 17.9413 18.9452 18.9952C17.8913 20.05 16.1939 20.05 12.8 20.05H9.2C5.8061 20.05 4.1087 20.05 3.0548 18.9952C2 17.9413 2 16.2439 2 12.85V11.05Z" stroke="white" stroke-opacity="0.56" stroke-width="1.5"/>
<path id="Vector_2" d="M6.49995 3.85V2.5M15.4999 3.85V2.5M2.44995 8.35H19.5499" stroke="white" stroke-opacity="0.56" stroke-width="1.5" stroke-linecap="round"/>
<path id="Vector_3" d="M16.4 15.55C16.4 15.7887 16.3052 16.0176 16.1364 16.1864C15.9676 16.3552 15.7387 16.45 15.5 16.45C15.2613 16.45 15.0324 16.3552 14.8636 16.1864C14.6948 16.0176 14.6 15.7887 14.6 15.55C14.6 15.3113 14.6948 15.0824 14.8636 14.9136C15.0324 14.7448 15.2613 14.65 15.5 14.65C15.7387 14.65 15.9676 14.7448 16.1364 14.9136C16.3052 15.0824 16.4 15.3113 16.4 15.55ZM16.4 11.95C16.4 12.1887 16.3052 12.4176 16.1364 12.5864C15.9676 12.7552 15.7387 12.85 15.5 12.85C15.2613 12.85 15.0324 12.7552 14.8636 12.5864C14.6948 12.4176 14.6 12.1887 14.6 11.95C14.6 11.7113 14.6948 11.4824 14.8636 11.3136C15.0324 11.1448 15.2613 11.05 15.5 11.05C15.7387 11.05 15.9676 11.1448 16.1364 11.3136C16.3052 11.4824 16.4 11.7113 16.4 11.95ZM11.9 15.55C11.9 15.7887 11.8052 16.0176 11.6364 16.1864C11.4676 16.3552 11.2387 16.45 11 16.45C10.7613 16.45 10.5324 16.3552 10.3636 16.1864C10.1948 16.0176 10.1 15.7887 10.1 15.55C10.1 15.3113 10.1948 15.0824 10.3636 14.9136C10.5324 14.7448 10.7613 14.65 11 14.65C11.2387 14.65 11.4676 14.7448 11.6364 14.9136C11.8052 15.0824 11.9 15.3113 11.9 15.55ZM11.9 11.95C11.9 12.1887 11.8052 12.4176 11.6364 12.5864C11.4676 12.7552 11.2387 12.85 11 12.85C10.7613 12.85 10.5324 12.7552 10.3636 12.5864C10.1948 12.4176 10.1 12.1887 10.1 11.95C10.1 11.7113 10.1948 11.4824 10.3636 11.3136C10.5324 11.1448 10.7613 11.05 11 11.05C11.2387 11.05 11.4676 11.1448 11.6364 11.3136C11.8052 11.4824 11.9 11.7113 11.9 11.95ZM7.39998 15.55C7.39998 15.7887 7.30515 16.0176 7.13637 16.1864C6.96759 16.3552 6.73867 16.45 6.49998 16.45C6.26128 16.45 6.03236 16.3552 5.86358 16.1864C5.6948 16.0176 5.59998 15.7887 5.59998 15.55C5.59998 15.3113 5.6948 15.0824 5.86358 14.9136C6.03236 14.7448 6.26128 14.65 6.49998 14.65C6.73867 14.65 6.96759 14.7448 7.13637 14.9136C7.30515 15.0824 7.39998 15.3113 7.39998 15.55ZM7.39998 11.95C7.39998 12.1887 7.30515 12.4176 7.13637 12.5864C6.96759 12.7552 6.73867 12.85 6.49998 12.85C6.26128 12.85 6.03236 12.7552 5.86358 12.5864C5.6948 12.4176 5.59998 12.1887 5.59998 11.95C5.59998 11.7113 5.6948 11.4824 5.86358 11.3136C6.03236 11.1448 6.26128 11.05 6.49998 11.05C6.73867 11.05 6.96759 11.1448 7.13637 11.3136C7.30515 11.4824 7.39998 11.7113 7.39998 11.95Z" fill="white" fill-opacity="0.56"/>
</g>
</g>
</svg>
