<svg width="24" height="20" viewBox="0 0 24 20" fill="none" xmlns="http://www.w3.org/2000/svg">
<path id="Vector" d="M3.30821 11.9705C3.6757 11.2914 3.5632 10.4564 3.02697 9.89981C2.22825 9.06855 1.80076 8.07031 1.80076 7.03125C1.80076 4.6748 4.19318 2.28125 7.80056 2.28125C11.4079 2.28125 13.8004 4.6748 13.8004 7.03125C13.8004 9.3877 11.4079 11.7812 7.80056 11.7812C7.30932 11.7812 6.83309 11.733 6.38311 11.6477C5.99312 11.5734 5.58813 11.6254 5.23189 11.8035C5.07815 11.8814 4.92066 11.9557 4.75941 12.0262C4.15943 12.2934 3.5257 12.5271 2.88823 12.6941C2.99322 12.5234 3.09072 12.3564 3.18447 12.1895C3.22571 12.1189 3.26696 12.0447 3.30446 11.9705H3.30821ZM0.000824521 7.03125C0.000824521 8.58242 0.645802 10.0037 1.72202 11.1244C1.68827 11.1875 1.65077 11.2543 1.61702 11.3137C1.23078 11.9965 0.780798 12.6682 0.244566 13.2471C-0.00292535 13.5068 -0.0666732 13.8854 0.0720721 14.2082C0.218317 14.5385 0.540806 14.75 0.900794 14.75C2.51324 14.75 4.14443 14.2564 5.50189 13.6479C5.68188 13.5662 5.86187 13.4809 6.03437 13.3955C6.6006 13.5068 7.19308 13.5625 7.80056 13.5625C12.1092 13.5625 15.6003 10.6383 15.6003 7.03125C15.6003 3.42422 12.1092 0.5 7.80056 0.5C3.49195 0.5 0.000824521 3.42422 0.000824521 7.03125ZM16.2003 18.3125C16.8077 18.3125 17.3965 18.2531 17.9665 18.1455C18.139 18.2309 18.3189 18.3162 18.4989 18.3979C19.8564 19.0064 21.4876 19.5 23.1 19.5C23.46 19.5 23.7825 19.2885 23.925 18.9619C24.0675 18.6354 24 18.2568 23.7525 18.0008C23.22 17.4219 22.77 16.7502 22.3801 16.0674C22.3463 16.0043 22.3088 15.9412 22.2751 15.8781C23.355 14.7537 24 13.3324 24 11.7812C24 8.27812 20.7039 5.41699 16.5678 5.25742C16.7215 5.82148 16.8002 6.41523 16.8002 7.03125V7.05352C20.0701 7.30215 22.2001 9.5584 22.2001 11.7812C22.2001 12.8203 21.7726 13.8186 20.9739 14.6461C20.4376 15.2027 20.3251 16.0414 20.6926 16.7168C20.7339 16.791 20.7751 16.8652 20.8126 16.9357C20.9064 17.1027 21.0076 17.2697 21.1089 17.4404C20.4714 17.2734 19.8376 17.0434 19.2377 16.7725C19.0764 16.702 18.9189 16.6277 18.7652 16.5498C18.4089 16.3717 18.004 16.3197 17.614 16.3939C17.1602 16.483 16.6878 16.5275 16.1965 16.5275C13.8828 16.5275 12.0717 15.5441 11.0667 14.2156C10.4667 14.416 9.83674 14.5645 9.19176 14.6535C10.463 16.8207 13.1254 18.3125 16.2003 18.3125Z" fill="white" fill-opacity="0.56"/>
</svg>
