<svg width="1440" height="797" viewBox="0 0 1440 797" fill="none"
    xmlns="http://www.w3.org/2000/svg">
    <path fill-rule="evenodd" clip-rule="evenodd" d="M-6 742.737C-6 748.996 -0.785375 753.994 5.46757 753.728L54.2083 751.654C114.417 749.092 234.833 743.969 355.25 751.654C475.667 759.338 596.083 779.831 716.5 790.077C836.917 800.323 957.333 800.323 1077.75 782.392C1198.17 764.462 1318.58 728.6 1378.79 710.669L1431.14 695.079C1435.8 693.691 1439 689.403 1439 684.537V673C1439 666.925 1434.08 662 1428 662H1378.79C1318.58 662 1198.17 662 1077.75 662C957.333 662 836.917 662 716.5 662C596.083 662 475.667 662 355.25 662C234.833 662 114.417 662 54.2083 662H4.99999C-1.07514 662 -6 666.925 -6 673V742.737Z" fill="#E14857"/>
    <rect x="-75" width="1556" height="683" rx="11" fill="#E14857"/>
</svg>
    