<svg width="50" height="49" viewBox="0 0 50 49" fill="none" xmlns="http://www.w3.org/2000/svg">
<g id="la:hands-helping">
<path id="Vector" d="M32.8125 4.6416L31.7875 5.74257C29.4922 8.2186 27.6 9.3257 26.025 10.05C24.45 10.7727 23.1266 10.9886 21.8266 11.964C20.4406 13.0053 18.4266 15.002 17.5781 18.5668C15.7594 18.9557 14.4281 19.6387 13.3781 20.5283C12.3406 21.4073 11.5594 22.4072 10.5969 23.4959C10.5891 23.5081 10.6016 23.5311 10.5969 23.5434C9.21563 25.0991 8.00781 26.7743 5.66406 27.6594L4.6875 28.0422V44.4066H34.4734C36.1812 44.3163 37.3656 43.1571 38.0859 42.0133C38.8047 40.871 39.2031 39.6337 39.4047 38.617C39.9234 36.0261 40.8688 28.5674 40.8688 28.5674L40.9188 28.425V28.281C40.8687 27.2459 40.4344 26.367 39.8922 25.5524L41.65 20.4334L44.4344 16.3174L45.2156 15.2164L44.1891 14.3084L33.9359 5.59863L32.8125 4.6416ZM32.9109 8.85254L41.0641 15.7922L38.9156 18.9006L38.7703 19.0461L38.7203 19.2849L37.3047 23.3994C36.5656 23.1008 35.8047 22.891 34.9609 22.9217H34.8625L25 22.9691H23.4375V28.9027C23.2188 30.5718 22.2719 31.218 21.0938 31.6789C20.7031 31.8335 20.6547 31.7493 20.3125 31.8213V22.9232C20.0562 17.2469 22.1187 15.613 23.7312 14.4049C24.1766 14.0695 25.4813 13.6821 27.3438 12.8261C28.9 12.108 30.8344 10.8217 32.9109 8.85407V8.85254ZM17.2859 22.0121C17.2797 22.3597 17.1687 22.6047 17.1875 22.9691V35.2191H18.75C18.75 35.2191 20.4219 35.2008 22.2172 34.501C24.0109 33.8012 26.1781 32.1628 26.5625 29.2855V26.0316L34.9609 25.9842H35.0094C35.6953 25.9474 36.3681 26.1784 36.8806 26.6267C37.3931 27.0749 37.7034 27.7039 37.7438 28.376C37.7375 28.4005 37.6656 28.9686 37.6469 29.0941H31.25V32.1566H37.2562C37.0906 33.3403 36.9391 34.0829 36.7672 35.2191H31.25V38.2816H36.2797C36.095 39.0225 35.7985 39.7321 35.4 40.3871C34.9734 41.0685 34.6062 41.3258 34.2781 41.3441H7.8125V29.9072C10.3453 28.5904 11.9203 26.6962 12.9391 25.5539C13.9953 24.3687 14.7203 23.4714 15.4297 22.8742C15.8938 22.4853 16.6203 22.2632 17.2859 22.0121Z" fill="white"/>
</g>
</svg>
