<svg width="53" height="53" viewBox="0 0 53 53" fill="none" xmlns="http://www.w3.org/2000/svg">
<g id="mdi:arm-barrier-down">
<path id="Vector" d="M43.8569 6.62488C43.5675 6.11954 43.1809 5.67656 42.7193 5.32157C42.2577 4.96658 41.7304 4.70661 41.1677 4.5567C40.605 4.40679 40.0182 4.36991 39.4412 4.4482C38.8642 4.52649 38.3084 4.71838 37.806 5.01279L15.281 18.0199C14.6185 17.799 13.9339 17.6665 13.2493 17.6665C11.4923 17.6665 9.8072 18.3645 8.56477 19.607C7.32234 20.8494 6.62435 22.5345 6.62435 24.2915V44.1665C6.03866 44.1665 5.47696 44.3992 5.06282 44.8133C4.64868 45.2275 4.41602 45.7892 4.41602 46.3749V48.5832H22.0827V46.3749C22.0827 45.7892 21.85 45.2275 21.4359 44.8133C21.0217 44.3992 20.46 44.1665 19.8743 44.1665V25.5724L42.2227 12.6536C44.3427 11.439 45.0714 8.74488 43.8569 6.62488ZM13.2493 27.604C12.3708 27.604 11.5283 27.255 10.9071 26.6338C10.2858 26.0126 9.93685 25.1701 9.93685 24.2915C9.93685 23.413 10.2858 22.5705 10.9071 21.9493C11.5283 21.328 12.3708 20.979 13.2493 20.979C14.1279 20.979 14.9704 21.328 15.5916 21.9493C16.2129 22.5705 16.5618 23.413 16.5618 24.2915C16.5618 25.1701 16.2129 26.0126 15.5916 26.6338C14.9704 27.255 14.1279 27.604 13.2493 27.604ZM22.966 21.244L17.8869 19.0357L20.7577 17.3795L25.8368 19.5878L22.966 21.244ZM30.6068 16.8274L25.5277 14.619L28.3985 12.9628L33.4777 15.1711L30.6068 16.8274ZM38.2698 12.4107L33.1906 10.2024L36.0614 8.54613L41.1185 10.7545L38.2698 12.4107ZM37.541 44.1665L26.4994 33.1249H33.1244V24.2915H41.9577V33.1249H48.5827L37.541 44.1665Z" fill="white"/>
</g>
</svg>
