<svg width="51" height="51" viewBox="0 0 51 51" fill="none" xmlns="http://www.w3.org/2000/svg">
<g id="carbon:tree">
<path id="Vector" d="M19.1255 47.8129H14.3442V44.6254H19.1255V24.8087L13.5234 21.4475L15.165 18.7158L20.7654 22.0754C21.2363 22.3599 21.626 22.7608 21.897 23.2395C22.168 23.7182 22.3113 24.2586 22.313 24.8087V44.6254C22.3121 45.4705 21.976 46.2808 21.3784 46.8784C20.7809 47.476 19.9706 47.8121 19.1255 47.8129Z" fill="white"/>
<path id="Vector_2" d="M35.0625 47.8125H30.2812C29.4361 47.8117 28.6259 47.4756 28.0283 46.878C27.4307 46.2804 27.0946 45.4701 27.0938 44.625V27.0938H36.6562C37.5467 27.0939 38.4274 26.9075 39.2414 26.5465C40.0555 26.1856 40.7849 25.658 41.3826 24.998C41.9804 24.3379 42.4332 23.56 42.7119 22.7142C42.9907 21.8685 43.0891 20.9737 43.001 20.0876C42.7877 18.4754 41.9877 16.9983 40.7541 15.9387C39.5204 14.8791 37.9395 14.3113 36.3136 14.3438H33.7907L33.5086 13.1022C32.5954 9.078 28.7369 6.375 23.9062 6.375C22.0822 6.38097 20.2977 6.90678 18.7618 7.89079C17.226 8.8748 16.0024 10.2762 15.2347 11.9308L14.7422 12.9938L13.3668 12.8122C13.1629 12.777 12.9568 12.7562 12.75 12.75C11.0592 12.75 9.43774 13.4216 8.24219 14.6172C7.04665 15.8127 6.375 17.4342 6.375 19.125C6.375 20.8158 7.04665 22.4373 8.24219 23.6328C9.43774 24.8284 11.0592 25.5 12.75 25.5V28.6875C10.2139 28.6875 7.78161 27.68 5.98829 25.8867C4.19497 24.0934 3.1875 21.6611 3.1875 19.125C3.1875 16.5889 4.19497 14.1566 5.98829 12.3633C7.78161 10.57 10.2139 9.5625 12.75 9.5625L12.8759 9.56409C13.9971 7.63016 15.6055 6.02376 17.5408 4.90496C19.4761 3.78616 21.6708 3.19401 23.9062 3.1875C29.7697 3.1875 34.5716 6.33994 36.261 11.1562H36.3136C38.7309 11.1293 41.0732 11.9946 42.8925 13.5865C44.7117 15.1785 45.8801 17.3853 46.1741 19.7848C46.3042 21.113 46.1549 22.4537 45.7358 23.7207C45.3167 24.9878 44.6371 26.153 43.7406 27.1417C42.8442 28.1303 41.7507 28.9203 40.5306 29.4611C39.3105 30.0018 37.9908 30.2812 36.6562 30.2812H30.2812V44.625H35.0625V47.8125Z" fill="white"/>
</g>
</svg>
