<svg width="728" height="798" viewBox="0 0 728 798" fill="none" xmlns="http://www.w3.org/2000/svg">
    <path d="M178.509 -30.606C535.193 11.6445 701.948 537.011 727.5 798L907 647.761L701.02 -147L255.165 -147C80.9942 -125.806 -178.176 -72.8565 178.509 -30.606Z" fill="#E14857"/>
    <path d="M616 207.5C616 256.377 576.377 296 527.5 296C478.623 296 439 256.377 439 207.5C439 158.623 478.623 119 527.5 119C576.377 119 616 158.623 616 207.5Z" fill="white"/>
    <path fill-rule="evenodd" clip-rule="evenodd" d="M527.5 283.84C569.661 283.84 603.84 249.661 603.84 207.5C603.84 165.339 569.661 131.16 527.5 131.16C485.339 131.16 451.16 165.339 451.16 207.5C451.16 249.661 485.339 283.84 527.5 283.84ZM527.5 296C576.377 296 616 256.377 616 207.5C616 158.623 576.377 119 527.5 119C478.623 119 439 158.623 439 207.5C439 256.377 478.623 296 527.5 296Z" fill="#E14857"/>
    <path d="M503.75 202.552C503.75 201.382 503.98 200.224 504.428 199.144C504.876 198.063 505.532 197.081 506.359 196.254C507.186 195.427 508.167 194.771 509.248 194.324C510.329 193.876 511.487 193.646 512.656 193.646C513.826 193.646 514.984 193.876 516.065 194.324C517.145 194.771 518.127 195.427 518.954 196.254C519.781 197.081 520.437 198.063 520.885 199.144C521.332 200.224 521.562 201.382 521.562 202.552C521.562 204.914 520.624 207.18 518.954 208.85C517.284 210.52 515.018 211.458 512.656 211.458C510.294 211.458 508.029 210.52 506.359 208.85C504.688 207.18 503.75 204.914 503.75 202.552ZM512.656 199.583C511.869 199.583 511.114 199.896 510.557 200.453C510 201.01 509.688 201.765 509.688 202.552C509.688 203.339 510 204.095 510.557 204.651C511.114 205.208 511.869 205.521 512.656 205.521C513.444 205.521 514.199 205.208 514.755 204.651C515.312 204.095 515.625 203.339 515.625 202.552C515.625 201.765 515.312 201.01 514.755 200.453C514.199 199.896 513.444 199.583 512.656 199.583ZM512.656 215.417C510.294 215.417 508.029 216.355 506.359 218.025C504.688 219.695 503.75 221.961 503.75 224.323C503.75 226.685 504.688 228.95 506.359 230.621C508.029 232.291 510.294 233.229 512.656 233.229C515.018 233.229 517.284 232.291 518.954 230.621C520.624 228.95 521.562 226.685 521.562 224.323C521.562 221.961 520.624 219.695 518.954 218.025C517.284 216.355 515.018 215.417 512.656 215.417ZM509.688 224.323C509.688 223.536 510 222.78 510.557 222.224C511.114 221.667 511.869 221.354 512.656 221.354C513.444 221.354 514.199 221.667 514.755 222.224C515.312 222.78 515.625 223.536 515.625 224.323C515.625 225.11 515.312 225.865 514.755 226.422C514.199 226.979 513.444 227.292 512.656 227.292C511.869 227.292 511.114 226.979 510.557 226.422C510 225.865 509.688 225.11 509.688 224.323ZM527.5 202.552C527.5 201.765 527.813 201.01 528.37 200.453C528.926 199.896 529.681 199.583 530.469 199.583H548.281C549.069 199.583 549.824 199.896 550.38 200.453C550.937 201.01 551.25 201.765 551.25 202.552C551.25 203.339 550.937 204.095 550.38 204.651C549.824 205.208 549.069 205.521 548.281 205.521H530.469C529.681 205.521 528.926 205.208 528.37 204.651C527.813 204.095 527.5 203.339 527.5 202.552ZM530.469 221.354C529.681 221.354 528.926 221.667 528.37 222.224C527.813 222.78 527.5 223.536 527.5 224.323C527.5 225.11 527.813 225.865 528.37 226.422C528.926 226.979 529.681 227.292 530.469 227.292H548.281C549.069 227.292 549.824 226.979 550.38 226.422C550.937 225.865 551.25 225.11 551.25 224.323C551.25 223.536 550.937 222.78 550.38 222.224C549.824 221.667 549.069 221.354 548.281 221.354H530.469ZM503.75 186.719C503.75 185.931 504.063 185.176 504.62 184.62C505.176 184.063 505.931 183.75 506.719 183.75H548.281C549.069 183.75 549.824 184.063 550.38 184.62C550.937 185.176 551.25 185.931 551.25 186.719C551.25 187.506 550.937 188.261 550.38 188.818C549.824 189.375 549.069 189.688 548.281 189.688H506.719C505.931 189.688 505.176 189.375 504.62 188.818C504.063 188.261 503.75 187.506 503.75 186.719ZM504.74 171.875C501.328 171.875 498.056 173.23 495.643 175.643C493.23 178.056 491.875 181.328 491.875 184.74V230.26C491.875 233.672 493.23 236.944 495.643 239.357C498.056 241.77 501.328 243.125 504.74 243.125H550.26C553.672 243.125 556.944 241.77 559.357 239.357C561.77 236.944 563.125 233.672 563.125 230.26V184.74C563.125 181.328 561.77 178.056 559.357 175.643C556.944 173.23 553.672 171.875 550.26 171.875H504.74ZM497.812 184.74C497.812 180.916 500.916 177.812 504.74 177.812H550.26C554.084 177.812 557.188 180.916 557.188 184.74V230.26C557.188 232.098 556.458 233.86 555.159 235.159C553.86 236.458 552.098 237.188 550.26 237.188H504.74C502.902 237.188 501.14 236.458 499.841 235.159C498.542 233.86 497.812 232.098 497.812 230.26V184.74Z" fill="black"/>
    </svg>
    