<svg width="729" height="799" viewBox="0 0 729 799" fill="none" xmlns="http://www.w3.org/2000/svg">
    <path d="M179.509 -30.606C536.193 11.6445 702.948 537.011 728.5 798L908 647.761L702.02 -147L256.165 -147C81.9942 -125.806 -177.176 -72.8565 179.509 -30.606Z" fill="#E14857" stroke="#E14857"/>
    <circle cx="527.5" cy="201.5" r="75" fill="white" stroke="#E14857" stroke-width="9"/>
    <path d="M563.516 175.144C563.117 174.913 562.665 174.792 562.204 174.792C561.743 174.792 561.29 174.913 560.891 175.144L538.5 186.247V177.375C538.499 176.928 538.383 176.488 538.164 176.098C537.945 175.708 537.63 175.38 537.248 175.146C536.867 174.912 536.432 174.779 535.985 174.76C535.538 174.742 535.093 174.837 534.694 175.039L512.25 186.247V166.875C512.25 166.179 511.973 165.511 511.481 165.019C510.989 164.527 510.321 164.25 509.625 164.25H493.875C493.179 164.25 492.511 164.527 492.019 165.019C491.527 165.511 491.25 166.179 491.25 166.875V232.5H564.75V177.375C564.751 176.929 564.638 176.49 564.422 176.1C564.206 175.709 563.895 175.38 563.516 175.144ZM543.75 227.25H533.25V208.875H543.75V227.25ZM559.5 227.25H549V206.25C549 205.554 548.723 204.886 548.231 204.394C547.739 203.902 547.071 203.625 546.375 203.625H530.625C529.929 203.625 529.261 203.902 528.769 204.394C528.277 204.886 528 205.554 528 206.25V227.25H496.5V169.5H507V194.753L533.25 181.628V194.753L559.5 181.628V227.25Z" fill="black"/>
    </svg>
    