<svg width="729" height="799" viewBox="0 0 729 799" fill="none" xmlns="http://www.w3.org/2000/svg">
    <path d="M179.509 -30.606C536.193 11.6445 702.948 537.011 728.5 798L908 647.761L702.02 -147L256.165 -147C81.9942 -125.806 -177.176 -72.8565 179.509 -30.606Z" fill="#E14857" stroke="#E14857"/>
    <circle cx="520.5" cy="189.5" r="61" fill="white" stroke="#E14857" stroke-width="9"/>
    <path d="M515.562 169.062H545.469V172.688H515.562V169.062ZM496.531 170.875C496.531 172.309 496.956 173.711 497.753 174.903C498.55 176.095 499.682 177.024 501.007 177.573C502.332 178.122 503.789 178.265 505.196 177.986C506.602 177.706 507.894 177.015 508.908 176.002C509.922 174.988 510.612 173.696 510.892 172.289C511.172 170.883 511.028 169.425 510.479 168.101C509.931 166.776 509.001 165.643 507.809 164.847C506.617 164.05 505.215 163.625 503.781 163.625C501.859 163.627 500.016 164.392 498.657 165.751C497.298 167.11 496.533 168.953 496.531 170.875ZM503.781 167.25C504.498 167.25 505.199 167.463 505.795 167.861C506.391 168.259 506.856 168.825 507.13 169.488C507.405 170.15 507.476 170.879 507.337 171.582C507.197 172.285 506.851 172.931 506.345 173.438C505.838 173.945 505.192 174.29 504.488 174.43C503.785 174.57 503.056 174.498 502.394 174.224C501.732 173.95 501.165 173.485 500.767 172.889C500.369 172.293 500.156 171.592 500.156 170.875C500.157 169.914 500.54 168.993 501.219 168.313C501.899 167.633 502.82 167.251 503.781 167.25ZM515.562 187.188H545.469V190.812H515.562V187.188ZM503.781 196.25C505.215 196.25 506.617 195.825 507.809 195.028C509.001 194.232 509.931 193.099 510.479 191.774C511.028 190.45 511.172 188.992 510.892 187.586C510.612 186.179 509.922 184.887 508.908 183.873C507.894 182.86 506.602 182.169 505.196 181.889C503.789 181.61 502.332 181.753 501.007 182.302C499.682 182.851 498.55 183.78 497.753 184.972C496.956 186.164 496.531 187.566 496.531 189C496.533 190.922 497.298 192.765 498.657 194.124C500.016 195.483 501.859 196.248 503.781 196.25ZM503.781 185.375C504.498 185.375 505.199 185.588 505.795 185.986C506.391 186.384 506.856 186.95 507.13 187.613C507.405 188.275 507.476 189.004 507.337 189.707C507.197 190.41 506.851 191.056 506.345 191.563C505.838 192.07 505.192 192.415 504.488 192.555C503.785 192.695 503.056 192.623 502.394 192.349C501.732 192.075 501.165 191.61 500.767 191.014C500.369 190.418 500.156 189.717 500.156 189C500.157 188.039 500.54 187.118 501.219 186.438C501.899 185.758 502.82 185.376 503.781 185.375ZM515.562 205.312H545.469V208.938H515.562V205.312ZM503.781 214.375C505.215 214.375 506.617 213.95 507.809 213.153C509.001 212.357 509.931 211.224 510.479 209.899C511.028 208.575 511.172 207.117 510.892 205.711C510.612 204.304 509.922 203.012 508.908 201.998C507.894 200.985 506.602 200.294 505.196 200.014C503.789 199.735 502.332 199.878 501.007 200.427C499.682 200.976 498.55 201.905 497.753 203.097C496.956 204.289 496.531 205.691 496.531 207.125C496.533 209.047 497.298 210.89 498.657 212.249C500.016 213.608 501.859 214.373 503.781 214.375ZM503.781 203.5C504.498 203.5 505.199 203.713 505.795 204.111C506.391 204.509 506.856 205.075 507.13 205.738C507.405 206.4 507.476 207.129 507.337 207.832C507.197 208.535 506.851 209.181 506.345 209.688C505.838 210.195 505.192 210.54 504.488 210.68C503.785 210.82 503.056 210.748 502.394 210.474C501.732 210.2 501.165 209.735 500.767 209.139C500.369 208.543 500.156 207.842 500.156 207.125C500.157 206.164 500.54 205.243 501.219 204.563C501.899 203.883 502.82 203.501 503.781 203.5Z" fill="black"/>
    </svg>
    