<svg width="45" height="45" viewBox="0 0 45 45" fill="none" xmlns="http://www.w3.org/2000/svg">
<g id="basil:user-outline">
<path id="Vector" fill-rule="evenodd" clip-rule="evenodd" d="M14.5312 14.0625C14.5312 13.016 14.7374 11.9798 15.1378 11.013C15.5383 10.0462 16.1253 9.16771 16.8652 8.42774C17.6052 7.68778 18.4837 7.1008 19.4505 6.70033C20.4173 6.29987 21.4535 6.09375 22.5 6.09375C23.5465 6.09375 24.5827 6.29987 25.5495 6.70033C26.5163 7.1008 27.3948 7.68778 28.1348 8.42774C28.8747 9.16771 29.4617 10.0462 29.8622 11.013C30.2626 11.9798 30.4688 13.016 30.4688 14.0625C30.4688 16.1759 29.6292 18.2028 28.1348 19.6973C26.6403 21.1917 24.6134 22.0312 22.5 22.0312C20.3866 22.0312 18.3597 21.1917 16.8652 19.6973C15.3708 18.2028 14.5312 16.1759 14.5312 14.0625ZM22.5 8.90625C21.1325 8.90625 19.821 9.4495 18.854 10.4165C17.887 11.3835 17.3438 12.695 17.3438 14.0625C17.3438 15.43 17.887 16.7415 18.854 17.7085C19.821 18.6755 21.1325 19.2188 22.5 19.2188C23.8675 19.2188 25.179 18.6755 26.146 17.7085C27.113 16.7415 27.6562 15.43 27.6562 14.0625C27.6562 12.695 27.113 11.3835 26.146 10.4165C25.179 9.4495 23.8675 8.90625 22.5 8.90625ZM15 27.6562C13.8811 27.6562 12.8081 28.1007 12.0169 28.8919C11.2257 29.6831 10.7812 30.7561 10.7812 31.875V34.1025C10.7812 34.1362 10.8056 34.1663 10.8394 34.1719C18.5625 35.4319 26.4394 35.4319 34.1606 34.1719C34.177 34.1692 34.1919 34.1607 34.2026 34.148C34.2132 34.1352 34.219 34.1191 34.2188 34.1025V31.875C34.2188 30.7561 33.7743 29.6831 32.9831 28.8919C32.1919 28.1007 31.1189 27.6562 30 27.6562H29.3625C29.3122 27.6559 29.2622 27.6635 29.2144 27.6788L27.5925 28.2094C24.2834 29.2897 20.7166 29.2897 17.4075 28.2094L15.7838 27.6788C15.7371 27.6638 15.6884 27.6562 15.6394 27.6562H15ZM7.96875 31.875C7.96875 30.0102 8.70954 28.2218 10.0282 26.9032C11.3468 25.5845 13.1352 24.8438 15 24.8438H15.6375C15.9844 24.8438 16.3294 24.9 16.6575 25.005L18.2812 25.5356C21.0226 26.4304 23.9774 26.4304 26.7188 25.5356L28.3425 25.005C28.6706 24.8981 29.0156 24.8438 29.3606 24.8438H30C31.8648 24.8438 33.6532 25.5845 34.9718 26.9032C36.2905 28.2218 37.0312 30.0102 37.0312 31.875V34.1025C37.0312 35.5162 36.0075 36.72 34.6125 36.9469C26.5906 38.2565 18.4094 38.2565 10.3875 36.9469C9.71236 36.8369 9.09833 36.4905 8.6552 35.9694C8.21208 35.4483 7.96876 34.7865 7.96875 34.1025V31.875Z" fill="black"/>
</g>
</svg>
